<?xml version="1.0" encoding="iso-8859-1"?>
<!-- Generator: Adobe Illustrator 19.0.0, SVG Export Plug-In . SVG Version: 6.00 Build 0)  -->
<svg version="1.1" id="Layer_1" xmlns="http://www.w3.org/2000/svg" xmlns:xlink="http://www.w3.org/1999/xlink" x="0px" y="0px"
	 viewBox="0 0 512 512" style="enable-background:new 0 0 512 512;" xml:space="preserve">
<path style="fill:#FFE6B8;" d="M479.381,323.262H142.637c-12.382,0-22.42-10.038-22.42-22.42V81.034
	c0-12.382,10.038-22.42,22.42-22.42h336.744c12.382,0,22.42,10.038,22.42,22.42v219.807
	C501.801,313.224,491.764,323.262,479.381,323.262z"/>
<rect x="217.245" y="148.981" style="fill:#BCC987;" width="49.242" height="138.231"/>
<rect x="298.839" y="204.037" style="fill:#D35B38;" width="49.242" height="83.175"/>
<rect x="381.157" y="108.898" style="fill:#BCC987;" width="49.242" height="178.314"/>
<path style="fill:#D35B38;" d="M148.466,220.272c0,0-3.236,6.256,9.709,12.945c5.271,2.723,14.94,5.375,24.553,7.562l0.925-14.178
	c1.275-19.547-14.236-36.101-33.824-36.101h-31.203c-19.588,0-35.099,16.555-33.824,36.101l1.387,21.264
	C135.35,245.13,148.466,220.272,148.466,220.272z"/>
<path style="fill:#FFE6B8;" d="M158.175,233.217c-12.945-6.689-9.709-12.945-9.709-12.945s-13.116,24.859-62.278,27.593
	l3.238,49.657c0.997,15.298,9.732,29.028,23.165,36.416l0,0c13.472,7.41,29.799,7.41,43.272,0l0,0
	c13.432-7.388,22.167-21.119,23.165-36.417l3.7-56.744C173.115,238.591,163.445,235.94,158.175,233.217z"/>
<path style="fill:#BCC987;" d="M257.86,424.863c-5.543-30.596-29.425-53.932-59.069-59.513c-4.461-0.84-9.051-1.282-13.729-1.282
	h-15.563l-35.273,35.273l-35.273-35.273H83.39c-4.679,0-9.269,0.442-13.729,1.282c-29.644,5.582-53.526,28.917-59.069,59.513l0,0
	c-2.692,14.856,8.723,28.525,23.821,28.525h199.625C249.137,453.387,260.552,439.719,257.86,424.863L257.86,424.863z"/>
<g>
	<path style="fill:#4D3D36;" d="M479.381,48.414H142.637c-17.986,0-32.619,14.634-32.619,32.619v100.128
		c-8.955,1.794-17.254,6.341-23.571,13.083c-8.304,8.863-12.613,20.898-11.824,33.018l1.387,21.264l3.238,49.657
		c1.231,18.871,11.858,35.577,28.426,44.689c8.313,4.572,17.432,6.859,26.552,6.859c9.118,0,18.239-2.287,26.551-6.858
		c4.671-2.569,8.849-5.76,12.498-9.413h306.105c17.986,0,32.619-14.634,32.619-32.619V81.034
		C512,63.048,497.368,48.414,479.381,48.414z M101.332,208.193c4.528-4.833,10.669-7.495,17.293-7.495h26.289l-5.684,15.157
		c-1.559,2.37-12.206,16.66-43.547,20.882l-0.704-10.8C94.548,219.327,96.804,213.025,101.332,208.193z M164.724,205.965
		c0.839,0.682,1.642,1.422,2.397,2.228c4.527,4.832,6.785,11.135,6.353,17.744l-0.127,1.957c-6.077-1.733-9.077-3.008-10.49-3.738
		c-2.062-1.066-3.287-1.957-3.991-2.569L164.724,205.965z M150.947,325.001c-10.471,5.758-22.971,5.758-33.442-0.001
		c-10.434-5.738-17.127-16.259-17.901-28.143l-2.592-39.734c24.805-3.113,40.262-11.846,49.333-19.427
		c2.027,1.639,4.411,3.168,7.147,4.583c4.092,2.114,10.188,4.219,18.498,6.386l-3.143,48.193
		C168.073,308.741,161.381,319.262,150.947,325.001z M451.686,297.412c5.633,0,10.199-4.567,10.199-10.199
		c0-5.632-4.566-10.199-10.199-10.199h-11.079V108.896c0-5.632-4.566-10.199-10.199-10.199h-49.246
		c-5.633,0-10.199,4.567-10.199,10.199v168.118h-12.681v-72.973c0-5.632-4.566-10.199-10.199-10.199h-49.246
		c-5.633,0-10.199,4.567-10.199,10.199v72.973h-11.949V148.986c0-5.632-4.566-10.199-10.199-10.199h-49.246
		c-5.633,0-10.199,4.567-10.199,10.199v128.027h-16.458l2.32-35.573l0.924-14.177c0.738-11.325-2.978-22.574-10.243-31.232V95.173
		c0-5.632-4.566-10.199-10.199-10.199c-5.633,0-10.199,4.567-10.199,10.199v87.213c-4.288-1.368-8.794-2.087-13.36-2.087h-19.411
		V81.034c0-6.739,5.482-12.221,12.221-12.221h336.745c6.739,0,12.221,5.482,12.221,12.221v219.807
		c0,6.739-5.482,12.221-12.221,12.221H186.133c1.672-4.727,2.735-9.717,3.072-14.879l0.05-0.772L451.686,297.412L451.686,297.412z
		 M256.289,277.013h-28.848V159.185h28.848V277.013z M337.883,277.013h-28.848V214.24h28.848V277.013z M420.207,277.013H391.36
		V119.095h28.848V277.013z"/>
	<path style="fill:#4D3D36;" d="M267.897,423.043c-6.178-34.096-33.19-61.31-67.216-67.717c-5.135-0.967-10.39-1.458-15.618-1.458
		H169.5c-2.705,0-5.3,1.075-7.212,2.987l-28.062,28.062l-28.061-28.062c-1.912-1.912-4.507-2.987-7.212-2.987H83.39
		c-5.228,0-10.483,0.491-15.617,1.458c-34.027,6.406-61.04,33.621-67.217,67.718c-1.824,10.064,0.891,20.338,7.448,28.19
		c6.556,7.85,16.182,12.352,26.411,12.352H234.04c10.228,0,19.854-4.502,26.411-12.352
		C267.005,443.383,269.72,433.108,267.897,423.043L267.897,423.043z M244.793,438.158c-2.669,3.196-6.589,5.03-10.753,5.03H34.414
		c-4.164,0-8.084-1.834-10.753-5.03s-3.775-7.379-3.032-11.478c4.68-25.835,25.143-46.454,50.922-51.307
		c3.892-0.734,7.876-1.106,11.84-1.106h11.339l32.286,32.286c3.984,3.982,10.442,3.983,14.424,0l32.287-32.286h11.339
		c3.964,0,7.948,0.371,11.841,1.106c25.777,4.854,46.239,25.473,50.921,51.308v-0.001
		C248.568,430.778,247.462,434.962,244.793,438.158z"/>
	<path style="fill:#4D3D36;" d="M472.223,78.401c-5.633,0-10.199,4.567-10.199,10.199v38.752c0,5.632,4.566,10.199,10.199,10.199
		s10.199-4.567,10.199-10.199V88.6C482.423,82.967,477.856,78.401,472.223,78.401z"/>
	<path style="fill:#4D3D36;" d="M472.223,149.795c-5.633,0-10.199,4.567-10.199,10.199v5.101c0,5.632,4.566,10.199,10.199,10.199
		s10.199-4.567,10.199-10.199v-5.101C482.423,154.361,477.856,149.795,472.223,149.795z"/>
</g>
<g>
</g>
<g>
</g>
<g>
</g>
<g>
</g>
<g>
</g>
<g>
</g>
<g>
</g>
<g>
</g>
<g>
</g>
<g>
</g>
<g>
</g>
<g>
</g>
<g>
</g>
<g>
</g>
<g>
</g>
</svg>
